<svg id="Layer_1" enable-background="new 0 0 510 510" height="512" viewBox="0 0 510 510" width="512" xmlns="http://www.w3.org/2000/svg"><g id="XMLID_3445_"><path id="XMLID_3496_" d="m0 450h510v60h-510z"/><circle id="XMLID_3538_" cx="105" cy="322.5" r="37.5"/><circle id="XMLID_3546_" cx="255" cy="322.5" r="37.5"/><circle id="XMLID_3547_" cx="405" cy="322.5" r="37.5"/><path id="XMLID_3551_" d="m213 210v30h84v-30c-6-17.461-22.443-30-42-30s-36 12.539-42 30z"/><path id="XMLID_3564_" d="m181.735 419h146.529c-7.352-33.691-37.401-59-73.265-59s-65.911 25.309-73.264 59z"/><path id="XMLID_3599_" d="m331.735 419h146.529c-7.352-33.691-37.401-59-73.265-59s-65.911 25.309-73.264 59z"/><path id="XMLID_3604_" d="m105 360c-35.863 0-65.912 25.309-73.265 59h146.529c-7.352-33.691-37.401-59-73.264-59z"/><circle id="XMLID_3605_" cx="255" cy="127.5" r="30"/><path id="XMLID_3606_" d="m180 225c0-26.692 14.027-50.156 35.087-63.451-7.839-9.175-12.587-21.064-12.587-34.049 0-28.949 23.551-52.5 52.5-52.5s52.5 23.551 52.5 52.5c0 12.984-4.748 24.874-12.587 34.049 21.06 13.295 35.087 36.759 35.087 63.451v15h120v-240h-390v240h120z"/></g></svg>