<svg width="92" height="92" viewBox="0 0 92 92" fill="none" xmlns="http://www.w3.org/2000/svg">
<rect x="1" y="1" width="90" height="90" fill="#F7F5FA" stroke="#162C42"/>
<path d="M46.7586 77.2211L9 35.333L22.1174 15.7788H70.8176L83.9096 35.2957L46.7586 77.2211Z" fill="#E46C66"/>
<path d="M46.7678 77.2105L83.9095 35.2957L70.8176 15.7788H46.7678V77.2105Z" fill="#BF554F"/>
<path d="M9 35.333L46.7585 77.2211L83.8044 35.415L9 35.333Z" fill="#C9443D"/>
<path d="M46.7678 35.3745V77.2106L83.8045 35.4151L46.7678 35.3745Z" fill="#E46C66"/>
<path d="M46.7585 77.2212L31.2264 35.4152H61.7735L46.7585 77.2212Z" fill="#E46C66"/>
<path d="M61.7736 35.415H31.2264L46.7687 15.7788L61.7736 35.415Z" fill="#BF554F"/>
<path d="M9 35.333L31.2264 35.415L22.1174 15.7788L9 35.333Z" fill="#BF554F"/>
<path d="M84 35.333L61.7736 35.415L70.8828 15.7788L84 35.333Z" fill="#C9443D"/>
<path d="M46.7678 35.415V77.1951L61.7736 35.415H46.7678Z" fill="#BF554F"/>
<path d="M46.7678 15.7806V35.4153H61.7736L46.7678 15.7806Z" fill="#E15851"/>
<path d="M84 35.333L61.7736 35.415L70.8828 15.7788L84 35.333Z" fill="#E15851"/>
</svg>
