<svg width="23" height="22" viewBox="0 0 23 22" fill="none" xmlns="http://www.w3.org/2000/svg">
<path d="M0.411987 22.0001L2.3134 14.4705L13.6458 3.13806L19.274 8.76624L7.94157 20.0986L0.411987 22.0001ZM3.68241 15.231L2.54156 19.8705L7.181 18.7296L17.1444 8.76624L13.6458 5.26764L3.68241 15.231Z" fill="#F7F5FA"/>
<path d="M6.64853 19.6423C6.19219 17.7409 4.67106 16.2198 2.76965 15.7634L3.14994 14.3184C5.58374 14.9268 7.48515 16.8282 8.0936 19.262L6.64853 19.6423Z" fill="#F7F5FA"/>
<path d="M15.3936 5.94226L16.469 7.0177L6.57409 16.9202L5.49866 15.8478L15.3936 5.94226Z" fill="#F7F5FA"/>
<path d="M1.47668 20.9353L3.68232 20.4029C3.45415 19.5662 2.8457 18.9578 2.00908 18.7296L1.47668 20.9353Z" fill="#F7F5FA"/>
<path d="M19.7303 8.30989L14.1022 2.68172L16.3839 0.400024L16.7641 0.476081C19.5022 0.856363 21.6318 2.98594 22.012 5.72397L22.0881 6.10425L19.7303 8.30989ZM16.2318 2.68172L19.7303 6.18031L20.4149 5.4958C20.0346 3.74651 18.6656 2.37749 16.9163 1.99721L16.2318 2.68172Z" fill="#F7F5FA"/>
</svg>
