<?xml version="1.0" ?><!DOCTYPE svg  PUBLIC '-//W3C//DTD SVG 1.1//EN'  'http://www.w3.org/Graphics/SVG/1.1/DTD/svg11.dtd'><svg enable-background="new 0 0 100 100" height="100px" id="Calque_2" version="1.1" viewBox="0 0 100 100" width="100px" xml:space="preserve" xmlns="http://www.w3.org/2000/svg" xmlns:xlink="http://www.w3.org/1999/xlink"><path d="M89.82,66.08c0,1.76-1.44,3.2-3.2,3.2h-5.43v11.91h-9.98v-3.5c0-2.83-2.31-5.131-5.13-5.131c-2.83,0-5.13,2.301-5.13,5.131  v3.5h-9.97v-9.98h3.479c0.01,0,0.01,0,0.01,0h0.021c2.819,0,5.13-2.31,5.13-5.13c0-2.83-2.311-5.13-5.13-5.13h-3.51v-9.99h11.89  v-5.42c0-1.77,1.439-3.21,3.21-3.21c0.88,0,1.68,0.36,2.26,0.94s0.94,1.38,0.94,2.27v5.42h11.91v11.91h5.43  C88.38,62.87,89.82,64.31,89.82,66.08z"/><path d="M57.67,66.08c0,1.76-1.43,3.2-3.2,3.2h-5.43v11.91H37.15v5.43c0,1.77-1.44,3.2-3.2,3.2c-1.77,0-3.21-1.44-3.21-3.2v-5.43  H18.83V69.28H13.4c-1.76,0-3.2-1.44-3.2-3.2c0-1.771,1.44-3.21,3.2-3.21h5.43V50.96h11.91v-5.42c0-1.77,1.43-3.21,3.2-3.21  c1.76,0,3.19,1.44,3.19,3.21v5.42h11.91v11.91h5.43C56.24,62.87,57.67,64.31,57.67,66.08z"/><path d="M40.41,33.92c0,2.83,2.3,5.13,5.13,5.13h3.5v9.99h-9.96v-3.5c0-2.83-2.31-5.13-5.13-5.13c-0.01,0-0.01,0-0.01,0  c-0.01,0-0.01,0-0.01,0c-2.83,0-5.13,2.3-5.13,5.13v3.5h-9.99V37.13h-5.43c-1.76,0-3.2-1.44-3.2-3.2c0-1.77,1.44-3.21,3.2-3.21h5.43  V18.81h11.91v-5.43c0-1.76,1.44-3.2,3.21-3.2c1.76,0,3.2,1.44,3.2,3.2v5.43h11.91v9.99h-3.5C42.71,28.8,40.41,31.1,40.41,33.92z"/><path d="M72.55,33.92c0,2.83,2.311,5.13,5.13,5.13h3.511v9.99h-9.98v-3.5c0-1.42-0.58-2.7-1.51-3.63c-0.931-0.93-2.21-1.5-3.62-1.5  c-2.83,0-5.13,2.3-5.13,5.13v3.5h-9.99V37.13h-5.43c-1.76,0-3.2-1.44-3.2-3.21c0-1.76,1.44-3.2,3.2-3.2h5.43V18.81h11.91v-5.43  c0-1.76,1.439-3.2,3.21-3.2c1.76,0,3.2,1.44,3.2,3.2v5.43h11.91v9.99H77.68C74.86,28.8,72.55,31.1,72.55,33.92z"/></svg>