<svg width="26" height="24" viewBox="0 0 26 24" fill="none" xmlns="http://www.w3.org/2000/svg">
<path d="M25.4619 11.8034L13.6487 0.262836C13.5636 0.179517 13.4626 0.113416 13.3514 0.0683154C13.2402 0.0232147 13.1209 0 13.0005 0C12.8801 0 12.7609 0.0232147 12.6497 0.0683154C12.5385 0.113416 12.4374 0.179517 12.3524 0.262836L0.53918 11.8034C0.195022 12.1398 0 12.5969 0 13.0735C0 14.0633 0.823109 14.8679 1.8355 14.8679H3.08021V23.1028C3.08021 23.5991 3.49033 24 3.99796 24H11.165V17.7194H14.3772V24H22.0031C22.5107 24 22.9209 23.5991 22.9209 23.1028V14.8679H24.1656C24.6531 14.8679 25.1206 14.6801 25.4648 14.3408C26.1789 13.6399 26.1789 12.5043 25.4619 11.8034Z" fill="#3D6571"/>
</svg>
